# xmcd CD database file
#
# Track frame offsets:
#	183
#	31958
#	73160
#	104855
#	132460
#	167378
#	201073
#	233508
#	268038
#
# Disc length: 3900 seconds
#
# Revision: 3
# Processed by: cddbd v1.5.2PL0 Copyright (c) Steve Scherf et al.
# Submitted via: CDex 1.51
#
DISCID=7e0f3a09
DTITLE=Czech-Norwegian Band with Benny Bailey - Jazznost
DYEAR=1990
DGENRE=Jazz
TTITLE0=Czech-Norwegian Band (Emil Viklický) - Sliding Down
TTITLE1=Czech-Norwegian Band (Emil Viklický) - East 70th Street
TTITLE2=Czech-Norwegian Band (Frantisek Uhlír) - Embarrassment
TTITLE3=Czech-Norwegian Band (Benny Bailey) - Peruvian Nights
TTITLE4=Czech-Norwegian Band (Josef Audes) - Goodbye Semetin
TTITLE5=Czech-Norwegian Band (Emil Viklický) - Dark Rider
TTITLE6=Czech-Norwegian Band (Emil Viklický) - Cacharel
TTITLE7=Czech-Norwegian Band (Emil Viklický) - Moravian Adventure
TTITLE8=Czech-Norwegian Band (Harald Gundhus) - Song Of Friendship
EXTD=YEAR: 1990
EXTT0=
EXTT1=
EXTT2=
EXTT3=
EXTT4=
EXTT5=
EXTT6=
EXTT7=
EXTT8=
PLAYORDER=
